<svg xmlns="http://www.w3.org/2000/svg" viewBox="0 0 180 180">
  <rect width="180" height="180" rx="38" fill="#030712"/>
  <rect x="22" y="22" width="136" height="136" rx="34" fill="url(#g)"/>
  <path d="M64 112c-15.1 0-25.5-10.5-25.5-25.1 0-14.5 10.8-25.8 26-25.8 9.9 0 16.8 4.1 21 10.2l-10.2 7.5c-2.7-3.6-6-5.7-10.8-5.7-7.5 0-12.3 5.7-12.3 13.5 0 7.9 5.1 13.8 12.3 13.8 5.4 0 8.7-2.4 11.4-6.3l10.2 7.2C81.6 108.2 74.4 112 64 112Zm57 0c-15.1 0-25.5-10.5-25.5-25.1 0-14.5 10.8-25.8 26-25.8 9.9 0 16.8 4.1 21 10.2l-10.2 7.5c-2.7-3.6-6-5.7-10.8-5.7-7.5 0-12.3 5.7-12.3 13.5 0 7.9 5.1 13.8 12.3 13.8 5.4 0 8.7-2.4 11.4-6.3l10.2 7.2c-4.5 6.9-11.7 10.7-22.1 10.7Z" fill="#020617"/>
  <defs>
    <linearGradient id="g" x1="24" y1="24" x2="156" y2="158" gradientUnits="userSpaceOnUse">
      <stop stop-color="#67e8f9"/>
      <stop offset="0.55" stop-color="#60a5fa"/>
      <stop offset="1" stop-color="#a78bfa"/>
    </linearGradient>
  </defs>
</svg>
